<svg xmlns="http://www.w3.org/2000/svg" xmlns:xlink="http://www.w3.org/1999/xlink" width="109.001" height="119.103" viewBox="0 0 109.001 119.103"><defs><style>.a{fill:url(#a);}.b{fill:#fff;}</style><linearGradient id="a" x1="0.868" y1="0.142" x2="0.291" y2="0.917" gradientUnits="objectBoundingBox"><stop offset="0" stop-color="#276ecc"/><stop offset="1" stop-color="#35c5ad"/></linearGradient></defs><g transform="translate(-553.5 -869.39)"><path class="a" d="M-5287.871-1189.06l-7.641-9.858A54.514,54.514,0,0,1-5340-1252.5a54.5,54.5,0,0,1,54.5-54.5,54.5,54.5,0,0,1,54.5,54.5,54.514,54.514,0,0,1-44.489,53.583l-7.64,9.858a2.983,2.983,0,0,1-2.371,1.163A2.982,2.982,0,0,1-5287.871-1189.06Z" transform="translate(5893.5 2176.39)"/><circle class="b" cx="47.5" cy="47.5" r="47.5" transform="translate(560.5 876.39)"/></g></svg>