<svg xmlns="http://www.w3.org/2000/svg" width="25.265" height="36" viewBox="0 0 25.265 36"><defs><style>.a{opacity:0.2;}.b{fill:#34c3ad;}.c{fill:#fff;stroke:#fff;}.d{stroke:none;}.e{fill:none;}</style></defs><g transform="translate(-951 -544)"><ellipse class="a" cx="7" cy="3" rx="7" ry="3" transform="translate(957 574)"/><path class="b" d="M810.133,602.135A12.647,12.647,0,0,0,797.5,614.768c0,5.042,3.545,10.474,6.519,14.143a60.085,60.085,0,0,0,6.111,6.454,61.568,61.568,0,0,0,6.13-6.518c2.967-3.679,6.5-9.108,6.5-14.079A12.647,12.647,0,0,0,810.133,602.135Zm0,18.443a5.811,5.811,0,1,1,5.811-5.811A5.817,5.817,0,0,1,810.133,620.578Z" transform="translate(153.5 -58.135)"/><g class="c" transform="translate(957 550)"><circle class="d" cx="6.5" cy="6.5" r="6.5"/><circle class="e" cx="6.5" cy="6.5" r="6"/></g></g></svg>