<svg xmlns="http://www.w3.org/2000/svg" xmlns:xlink="http://www.w3.org/1999/xlink" width="61.988" height="81.389" viewBox="0 0 61.988 81.389"><defs><style>.a{stroke:rgba(0,0,0,0);fill:url(#a);}.b{fill:#fff;stroke:#fff;}.c{stroke:none;}.d{fill:none;}</style><linearGradient id="a" x1="0.5" x2="0.5" y2="1" gradientUnits="objectBoundingBox"><stop offset="0" stop-color="#276ecc"/><stop offset="1" stop-color="#35c5ad"/></linearGradient></defs><g transform="translate(-696.5 -887.39)"><path class="a" d="M827.994,602.135A30.528,30.528,0,0,0,797.5,632.629c0,12.17,8.557,25.283,15.736,34.141a145.043,145.043,0,0,0,14.752,15.579,148.6,148.6,0,0,0,14.8-15.735c7.163-8.88,15.7-21.985,15.7-33.986A30.528,30.528,0,0,0,827.994,602.135Z" transform="translate(-100.5 285.755)"/><g class="b" transform="translate(704 894.737)"><ellipse class="c" cx="23.326" cy="23.326" rx="23.326" ry="23.326"/><ellipse class="d" cx="23.326" cy="23.326" rx="22.826" ry="22.826"/></g></g></svg>